<svg xmlns="http://www.w3.org/2000/svg" version="1.1" xmlns:xlink="http://www.w3.org/1999/xlink" xmlns:svgjs="http://svgjs.com/svgjs" width="1444" height="550" preserveAspectRatio="none" viewBox="0 0 1444 550"><g mask="url(&quot;#SvgjsMask1000&quot;)" fill="none"><rect width="1444" height="550" x="0" y="0" fill="rgba(126, 143, 161, 1)"></rect><path d="M510.771,167.834C543.386,167.503,571.071,146.176,587.124,117.783C602.904,89.873,604.16,56.74,589.787,28.08C573.647,-4.103,546.773,-34.227,510.771,-34.463C474.487,-34.701,446.533,-5.236,429.942,27.034C414.857,56.374,415.26,90.748,431.685,119.36C448.184,148.101,477.633,168.17,510.771,167.834" fill="rgba(73, 70, 89, 1)" class="triangle-float2"></path><path d="M157.73682299462672 618.3006222784728L247.0897252752149 578.5181470675844 207.30725006432655 489.16524478699625 117.95434778373834 528.9477199978846z" fill="rgba(73, 70, 89, 1)" class="triangle-float3"></path><path d="M476.896,189.762C510.888,189.914,544.422,173.693,560.037,143.5C574.672,115.2,563.366,82.337,546.395,55.373C530.744,30.506,506.273,11.962,476.896,11.402C446.56,10.823,418.694,26.88,402.646,52.631C385.554,80.057,379.646,114.344,395.033,142.762C411.09,172.418,443.172,189.611,476.896,189.762" fill="rgba(73, 70, 89, 1)" class="triangle-float1"></path><path d="M947.3545470002015 180.78977671737965L848.1194325489196 150.45055755156108 817.780213383101 249.685672002843 917.0153278343829 280.0248911686616z" fill="rgba(73, 70, 89, 1)" class="triangle-float1"></path><path d="M1078.781,161.704C1104.116,161.501,1128.126,147.377,1139.214,124.596C1149.237,104.003,1138.795,81.5,1127.52,61.565C1115.992,41.183,1102.19,18.312,1078.781,17.744C1054.767,17.161,1037.755,38.282,1025.763,59.095C1013.795,79.867,1005.645,104.278,1016.65,125.576C1028.437,148.388,1053.105,161.909,1078.781,161.704" fill="rgba(73, 70, 89, 1)" class="triangle-float3"></path><path d="M298.497,539.012C318.834,538.565,337.871,528.319,347.828,510.58C357.587,493.194,355.528,472.193,345.76,454.812C335.769,437.033,318.886,423.254,298.497,422.8C277.379,422.33,258.197,434.443,247.446,452.625C236.49,471.154,234.307,494.305,245.259,512.837C256.042,531.084,277.307,539.478,298.497,539.012" fill="rgba(73, 70, 89, 1)" class="triangle-float1"></path><path d="M1399.554,222.164C1416.855,223.236,1435.804,220.428,1445.268,205.905C1455.437,190.301,1454.825,169.022,1444.114,153.785C1434.583,140.226,1416.078,139.587,1399.554,140.874C1385.687,141.954,1372.877,148.055,1365.59,159.902C1357.919,172.375,1355.693,187.932,1362.705,200.787C1369.994,214.148,1384.363,221.222,1399.554,222.164" fill="rgba(73, 70, 89, 1)" class="triangle-float1"></path><path d="M764.3970623821247 357.57689364211546L835.316420544321 239.80165127218964 715.2110832871246 235.60748047510248z" fill="rgba(73, 70, 89, 1)" class="triangle-float3"></path><path d="M129.03227160227337 448.12053359517546L42.67982046341963 520.5788434970417 115.1381303652859 606.9312946358955 201.49058150413964 534.4729847340292z" fill="rgba(73, 70, 89, 1)" class="triangle-float2"></path><path d="M1057.287,69.373C1074.533,69.272,1094.078,69.836,1103.488,55.383C1113.489,40.022,1109.147,19.929,1099.711,4.214C1090.581,-10.991,1074.985,-22.71,1057.287,-21.561C1040.989,-20.503,1031.93,-4.785,1023.44,9.167C1014.41,24.007,1001.621,40.79,1010.134,55.932C1018.718,71.201,1039.77,69.476,1057.287,69.373" fill="rgba(73, 70, 89, 1)" class="triangle-float2"></path><path d="M984.04855842608 110.27029463149253L974.1653949401735 190.76220186502354 1099.8448375334233 165.3409934771177z" fill="rgba(73, 70, 89, 1)" class="triangle-float1"></path><path d="M81.877,251.45C102.635,252.094,121.783,239.468,131.448,221.086C140.521,203.832,135.944,183.758,126.411,166.754C116.613,149.276,101.887,133.708,81.877,132.665C60.207,131.536,38.525,142.405,28.504,161.652C19.066,179.78,26.919,200.599,37.361,218.168C47.507,235.238,62.029,250.834,81.877,251.45" fill="rgba(73, 70, 89, 1)" class="triangle-float2"></path><path d="M1427.709,260.491C1472.402,262.516,1517.768,240.691,1537.707,200.641C1556.136,163.624,1536.09,122.265,1513.896,87.375C1493.796,55.777,1465.112,29.566,1427.709,27.716C1387.015,25.704,1345.666,42.719,1325.377,78.052C1305.157,113.264,1313.853,155.987,1333.717,191.401C1354.105,227.749,1386.076,258.605,1427.709,260.491" fill="rgba(73, 70, 89, 1)" class="triangle-float1"></path><path d="M974.1336803221354 57.61772708049102L1037.401218282554 138.5964828823868 1118.37997408445 75.32894492196809 1055.1124361240313-5.649810879927678z" fill="rgba(73, 70, 89, 1)" class="triangle-float1"></path></g><defs><mask id="SvgjsMask1000"><rect width="1444" height="550" fill="#ffffff"></rect></mask><style>
            @keyframes float1 {
                0%{transform: translate(0, 0)}
                50%{transform: translate(-10px, 0)}
                100%{transform: translate(0, 0)}
            }

            .triangle-float1 {
                animation: float1 5s infinite;
            }

            @keyframes float2 {
                0%{transform: translate(0, 0)}
                50%{transform: translate(-5px, -5px)}
                100%{transform: translate(0, 0)}
            }

            .triangle-float2 {
                animation: float2 4s infinite;
            }

            @keyframes float3 {
                0%{transform: translate(0, 0)}
                50%{transform: translate(0, -10px)}
                100%{transform: translate(0, 0)}
            }

            .triangle-float3 {
                animation: float3 6s infinite;
            }
        </style></defs></svg>